<?xml version="1.0" encoding="UTF-8"?>
<svg id="Camada_2" data-name="Camada 2" xmlns="http://www.w3.org/2000/svg" viewBox="0 0 1165.21 251.78">
  <defs>
    <style>
      .cls-1 {
        fill: #ffb24e;
      }

      .cls-2 {
        fill: #152245;
      }

      .cls-3 {
        fill: #3865cf;
      }

      .cls-4 {
        fill: #4d84f1;
      }
    </style>
  </defs>
  <g id="Camada_1-2" data-name="Camada 1">
    <g>
      <g>
        <path class="cls-2" d="m307.07,189.92v-37.39l57.96-54.22v-1.87h-56.09v-37.39h114.98v37.39l-57.96,54.22v1.87h59.83v37.39h-118.72Z"/>
        <path class="cls-2" d="m494.03,192.73c-10.97,0-20.79-2.34-29.45-7.01-8.66-4.68-15.42-11-20.29-18.98-4.86-7.97-7.29-16.76-7.29-26.36s2.43-18.38,7.29-26.36c4.86-7.98,11.62-14.3,20.29-18.97,8.66-4.68,18.48-7.01,29.45-7.01s20.78,2.34,29.45,7.01c8.66,4.67,15.42,11,20.29,18.97,4.86,7.98,7.29,16.76,7.29,26.36v2.81h-70.11c0,4.48.56,8.2,1.68,11.12,1.12,2.93,2.65,5.08,4.58,6.45s4.21,2.06,6.83,2.06c3.11,0,5.7-.81,7.76-2.43,2.06-1.62,3.52-3.61,4.39-5.98h43.94c-3.37,10.72-9.75,19.79-19.16,27.2-9.41,7.42-21.72,11.12-36.93,11.12Zm12.15-61.7c-.25-2.37-.84-4.52-1.77-6.45-.94-1.93-2.28-3.52-4.02-4.77-1.75-1.24-3.87-1.87-6.36-1.87s-4.61.62-6.35,1.87c-1.75,1.25-3.09,2.84-4.02,4.77-.94,1.93-1.53,4.08-1.78,6.45h24.31Z"/>
        <path class="cls-2" d="m570.68,189.92v-70.11h-13.09v-28.98h13.09v-20.56h43v20.56h22.44v28.98h-22.44v41.13h24.31v28.98h-67.31Z"/>
        <path class="cls-2" d="m690.34,192.73c-7.61,0-14.52-2.06-20.75-6.17-6.23-4.11-11.19-10.13-14.87-18.04-3.68-7.92-5.51-17.3-5.51-28.14s1.84-20.22,5.51-28.13c3.67-7.92,8.63-13.93,14.87-18.04,6.23-4.11,13.15-6.17,20.75-6.17,4.61,0,8.81.75,12.62,2.25s7.07,3.43,9.82,5.8c2.74,2.37,4.92,4.99,6.54,7.85h1.87v-13.09h43v99.09h-43v-13.09h-1.87c-1.62,2.87-3.81,5.48-6.54,7.85-2.74,2.37-6.02,4.3-9.82,5.8-3.8,1.5-8.01,2.25-12.62,2.25Zm17.01-34.59c2.49,0,4.8-.72,6.92-2.15,2.12-1.43,3.8-3.49,5.05-6.17,1.24-2.68,1.87-5.82,1.87-9.44s-.62-6.76-1.87-9.44c-1.25-2.68-2.93-4.74-5.05-6.17-2.12-1.43-4.43-2.15-6.92-2.15-2.62,0-4.99.72-7.1,2.15-2.12,1.44-3.83,3.49-5.14,6.17-1.31,2.68-1.96,5.82-1.96,9.44s.66,6.76,1.96,9.44,3.02,4.74,5.14,6.17c2.12,1.43,4.49,2.15,7.1,2.15Z"/>
        <path class="cls-2" d="m783.81,189.92V59.05h46.74v44.87h37.39v-44.87h46.74v130.87h-46.74v-44.87h-37.39v44.87h-46.74Z"/>
        <path class="cls-2" d="m987.6,192.73c-10.97,0-20.79-2.34-29.45-7.01-8.66-4.68-15.42-11-20.29-18.98-4.86-7.97-7.29-16.76-7.29-26.36s2.43-18.38,7.29-26.36,11.62-14.3,20.29-18.97c8.66-4.68,18.48-7.01,29.45-7.01s20.78,2.34,29.45,7.01c8.66,4.67,15.42,11,20.29,18.97,4.86,7.98,7.29,16.76,7.29,26.36v2.81h-70.11c0,4.48.56,8.2,1.68,11.12,1.12,2.93,2.65,5.08,4.58,6.45s4.21,2.06,6.83,2.06c3.11,0,5.7-.81,7.76-2.43,2.06-1.62,3.52-3.61,4.39-5.98h43.94c-3.37,10.72-9.75,19.79-19.16,27.2-9.41,7.42-21.72,11.12-36.93,11.12Zm12.15-61.7c-.25-2.37-.84-4.52-1.77-6.45-.94-1.93-2.28-3.52-4.02-4.77-1.75-1.24-3.87-1.87-6.36-1.87s-4.61.62-6.35,1.87c-1.75,1.25-3.09,2.84-4.02,4.77-.94,1.93-1.53,4.08-1.78,6.45h24.31Z"/>
        <path class="cls-2" d="m1045.55,189.92l24.31-52.35-22.44-46.74h44.87l11.22,29.91h3.74l11.22-29.91h44.87l-22.44,46.74,24.3,52.35h-45.8l-11.22-30.85h-5.61l-11.22,30.85h-45.8Z"/>
      </g>
      <g>
        <path class="cls-3" d="m253.42,125.64c0-21-56.73-38.02-126.71-38.02S0,104.64,0,125.64c0,4.38,2.47,8.6,7.01,12.51,17.23-14.86,64.32-25.52,119.7-25.52s102.46,10.66,119.7,25.52c4.54-3.91,7.01-8.13,7.01-12.51Z"/>
        <path class="cls-3" d="m189.08,199.88c12.83-14.73-4.63-59.88-38.99-100.84-34.36-40.96-72.61-62.23-85.44-47.5-2.68,3.07-4.04,7.47-4.2,12.88,17.54-.33,47.16,19.75,74.35,52.17,27.19,32.42,43.8,67.45,43.19,87.96,4.62-.08,8.41-1.59,11.08-4.67Z"/>
        <path class="cls-3" d="m41.5,249.35c14.11,13.5,63.76-30.76,110.91-98.86C199.56,82.4,226.35,16.25,212.25,2.75c-2.94-2.82-7.44-3.12-13.13-1.22-1.63,26.33-26.2,78.99-63.51,132.88s-76.19,92.86-97.78,100.07c-.43,6.94.73,12.05,3.67,14.87Z"/>
        <polygon class="cls-1" points="159.67 68.8 93.75 68.8 60.79 125.89 93.75 182.98 159.67 182.98 192.63 125.89 159.67 68.8"/>
        <path class="cls-4" d="m253.42,126.14c0,21-56.73,38.02-126.71,38.02S0,147.14,0,126.14c0-4.38,2.47-8.6,7.01-12.51,17.23,14.86,64.32,25.52,119.7,25.52s102.46-10.66,119.7-25.52c4.54,3.91,7.01,8.13,7.01,12.51Z"/>
        <path class="cls-4" d="m41.17,249.03c-14.11-13.5,12.69-79.66,59.84-147.75C148.15,33.19,197.81-11.08,211.91,2.42c2.94,2.82,4.11,7.93,3.67,14.87-21.59,7.22-60.47,46.18-97.78,100.07-37.31,53.89-61.88,106.56-63.51,132.88-5.69,1.91-10.18,1.6-13.13-1.22Z"/>
        <path class="cls-4" d="m188.77,200.24c-12.83,14.73-51.08-6.54-85.44-47.5-34.36-40.96-51.82-86.11-38.99-100.84,2.68-3.07,6.46-4.58,11.08-4.67-.61,20.51,16,55.55,43.19,87.96,27.19,32.42,56.82,52.5,74.35,52.17-.16,5.4-1.52,9.8-4.2,12.88Z"/>
      </g>
    </g>
  </g>
</svg>