<?xml version="1.0" encoding="UTF-8"?>
<svg id="Camada_2" data-name="Camada 2" xmlns="http://www.w3.org/2000/svg" viewBox="0 0 255 253.35">
  <defs>
    <style>
      .cls-1 {
        fill: #152245;
      }
    </style>
  </defs>
  <g id="Camada_1-2" data-name="Camada 1">
    <g>
      <g>
        <path class="cls-1" d="m173.05,90.68l15.8,27.37c27.4,4.52,48.67,11.97,59.09,20.96,4.57-3.94,7.06-8.18,7.06-12.59,0-16.32-34.03-30.24-81.95-35.75Z"/>
        <path class="cls-1" d="m81.95,90.68C34.03,96.18,0,110.11,0,126.42c0,4.41,2.48,8.65,7.06,12.59,10.42-8.98,31.69-16.44,59.09-20.96l15.8-27.37Z"/>
      </g>
      <g>
        <path class="cls-1" d="m182.34,146.59l-13.01,22.54c6.58,14.25,10.07,27.06,9.78,36.69,4.65-.08,8.46-1.6,11.15-4.7,8-9.19,4.28-30.13-7.92-54.54Z"/>
        <path class="cls-1" d="m94.33,69.23h26.37c-24.41-20.14-46.48-27.89-55.65-17.36-2.69,3.09-4.06,7.52-4.22,12.96,7.88-.15,18.19,3.81,29.62,11.13l3.88-6.72Z"/>
      </g>
      <g>
        <path class="cls-1" d="m181.99,106.16c28.85-50.46,42.59-92.85,31.59-103.39-2.96-2.84-7.48-3.14-13.21-1.22-1.11,17.83-12.67,47.66-31.56,81.8l13.18,22.82Z"/>
        <path class="cls-1" d="m98.85,184.12c-24.23,28.06-46.35,47-60.78,51.83-.44,6.98.74,12.12,3.7,14.96,11.78,11.28,48.21-17.5,87.38-66.79h-30.3Z"/>
      </g>
      <path class="cls-1" d="m255,126.93c0,21.13-57.09,38.26-127.5,38.26S0,148.06,0,126.93c0-4.41,2.48-8.65,7.06-12.59,17.34,14.95,64.72,25.68,120.44,25.68s103.1-10.72,120.44-25.68c4.57,3.94,7.06,8.18,7.06,12.59Z"/>
      <path class="cls-1" d="m189.95,201.49c-12.91,14.82-51.4-6.58-85.97-47.8-34.57-41.22-52.14-86.65-39.24-101.47,2.69-3.09,6.5-4.61,11.15-4.7-.62,20.64,16.1,55.89,43.46,88.51,27.36,32.62,57.17,52.83,74.82,52.49-.16,5.44-1.53,9.87-4.22,12.96Z"/>
      <path class="cls-1" d="m41.43,250.59c-14.19-13.59,12.77-80.15,60.21-148.67C149.08,33.39,199.04-11.15,213.24,2.44c2.96,2.84,4.13,7.98,3.7,14.96-21.73,7.26-60.85,46.47-98.39,100.7-37.54,54.23-62.26,107.23-63.91,133.71-5.73,1.92-10.25,1.61-13.21-1.22Z"/>
    </g>
  </g>
</svg>