<?xml version="1.0" encoding="UTF-8"?>
<svg id="Camada_2" data-name="Camada 2" xmlns="http://www.w3.org/2000/svg" viewBox="0 0 253.42 251.78">
  <defs>
    <style>
      .cls-1 {
        fill: #ffb24e;
      }

      .cls-2 {
        fill: #3865cf;
      }

      .cls-3 {
        fill: #4d84f1;
      }
    </style>
  </defs>
  <g id="Camada_1-2" data-name="Camada 1">
    <g>
      <path class="cls-2" d="m253.42,125.64c0-21-56.73-38.02-126.71-38.02S0,104.64,0,125.64c0,4.38,2.47,8.6,7.01,12.51,17.23-14.86,64.32-25.52,119.7-25.52s102.46,10.66,119.7,25.52c4.54-3.91,7.01-8.13,7.01-12.51Z"/>
      <path class="cls-2" d="m189.08,199.88c12.83-14.73-4.63-59.88-38.99-100.84-34.36-40.96-72.61-62.23-85.44-47.5-2.68,3.07-4.04,7.47-4.2,12.88,17.54-.33,47.16,19.75,74.35,52.17,27.19,32.42,43.8,67.45,43.19,87.96,4.62-.08,8.41-1.59,11.08-4.67Z"/>
      <path class="cls-2" d="m41.5,249.35c14.11,13.5,63.76-30.76,110.91-98.86C199.56,82.4,226.35,16.25,212.25,2.75c-2.94-2.82-7.44-3.12-13.13-1.22-1.63,26.33-26.2,78.99-63.51,132.88s-76.19,92.86-97.78,100.07c-.43,6.94.73,12.05,3.67,14.87Z"/>
      <polygon class="cls-1" points="159.67 68.8 93.75 68.8 60.79 125.89 93.75 182.98 159.67 182.98 192.63 125.89 159.67 68.8"/>
      <path class="cls-3" d="m253.42,126.14c0,21-56.73,38.02-126.71,38.02S0,147.14,0,126.14c0-4.38,2.47-8.6,7.01-12.51,17.23,14.86,64.32,25.52,119.7,25.52s102.46-10.66,119.7-25.52c4.54,3.91,7.01,8.13,7.01,12.51Z"/>
      <path class="cls-3" d="m41.17,249.03c-14.11-13.5,12.69-79.66,59.84-147.75C148.15,33.19,197.81-11.08,211.91,2.42c2.94,2.82,4.11,7.93,3.67,14.87-21.59,7.22-60.47,46.18-97.78,100.07-37.31,53.89-61.88,106.56-63.51,132.88-5.69,1.91-10.18,1.6-13.13-1.22Z"/>
      <path class="cls-3" d="m188.77,200.24c-12.83,14.73-51.08-6.54-85.44-47.5-34.36-40.96-51.82-86.11-38.99-100.84,2.68-3.07,6.46-4.58,11.08-4.67-.61,20.51,16,55.55,43.19,87.96,27.19,32.42,56.82,52.5,74.35,52.17-.16,5.4-1.52,9.8-4.2,12.88Z"/>
    </g>
  </g>
</svg>