<?xml version="1.0" encoding="UTF-8"?>
<svg id="Camada_2" data-name="Camada 2" xmlns="http://www.w3.org/2000/svg" viewBox="0 0 1166 253.35">
  <defs>
    <style>
      .cls-1 {
        fill: #fff;
      }
    </style>
  </defs>
  <g id="Camada_1-2" data-name="Camada 1">
    <g>
      <g>
        <path class="cls-1" d="m307.86,190.71v-37.39l57.96-54.22v-1.87h-56.09v-37.39h114.98v37.39l-57.96,54.22v1.87h59.83v37.39h-118.72Z"/>
        <path class="cls-1" d="m494.82,193.51c-10.97,0-20.79-2.34-29.45-7.01-8.66-4.68-15.42-11-20.29-18.98-4.86-7.97-7.29-16.76-7.29-26.36s2.43-18.38,7.29-26.36c4.86-7.98,11.62-14.3,20.29-18.97,8.66-4.68,18.48-7.01,29.45-7.01s20.78,2.34,29.45,7.01c8.66,4.67,15.42,11,20.29,18.97,4.86,7.98,7.29,16.76,7.29,26.36v2.81h-70.11c0,4.48.56,8.2,1.68,11.12,1.12,2.93,2.65,5.08,4.58,6.45s4.21,2.06,6.83,2.06c3.11,0,5.7-.81,7.76-2.43,2.06-1.62,3.52-3.61,4.39-5.98h43.94c-3.37,10.72-9.75,19.79-19.16,27.2-9.41,7.42-21.72,11.12-36.93,11.12Zm12.15-61.7c-.25-2.37-.84-4.52-1.77-6.45-.94-1.93-2.28-3.52-4.02-4.77-1.75-1.24-3.87-1.87-6.36-1.87s-4.61.62-6.35,1.87c-1.75,1.25-3.09,2.84-4.02,4.77-.94,1.93-1.53,4.08-1.78,6.45h24.31Z"/>
        <path class="cls-1" d="m571.47,190.71v-70.11h-13.09v-28.98h13.09v-20.56h43v20.56h22.44v28.98h-22.44v41.13h24.31v28.98h-67.31Z"/>
        <path class="cls-1" d="m691.13,193.51c-7.61,0-14.52-2.06-20.75-6.17-6.23-4.11-11.19-10.13-14.87-18.04-3.68-7.92-5.51-17.3-5.51-28.14s1.84-20.22,5.51-28.13c3.67-7.92,8.63-13.93,14.87-18.04,6.23-4.11,13.15-6.17,20.75-6.17,4.61,0,8.81.75,12.62,2.25,3.8,1.5,7.07,3.43,9.82,5.8,2.74,2.37,4.92,4.99,6.54,7.85h1.87v-13.09h43v99.09h-43v-13.09h-1.87c-1.62,2.87-3.81,5.48-6.54,7.85-2.74,2.37-6.02,4.3-9.82,5.8-3.8,1.5-8.01,2.25-12.62,2.25Zm17.01-34.59c2.49,0,4.8-.72,6.92-2.15,2.12-1.43,3.8-3.49,5.05-6.17,1.24-2.68,1.87-5.82,1.87-9.44s-.62-6.76-1.87-9.44c-1.25-2.68-2.93-4.74-5.05-6.17-2.12-1.43-4.43-2.15-6.92-2.15-2.62,0-4.99.72-7.1,2.15-2.12,1.44-3.83,3.49-5.14,6.17s-1.96,5.82-1.96,9.44.66,6.76,1.96,9.44,3.02,4.74,5.14,6.17c2.12,1.43,4.49,2.15,7.1,2.15Z"/>
        <path class="cls-1" d="m784.6,190.71V59.84h46.74v44.87h37.39v-44.87h46.74v130.87h-46.74v-44.87h-37.39v44.87h-46.74Z"/>
        <path class="cls-1" d="m988.39,193.51c-10.97,0-20.79-2.34-29.45-7.01-8.66-4.68-15.42-11-20.29-18.98-4.86-7.97-7.29-16.76-7.29-26.36s2.43-18.38,7.29-26.36,11.62-14.3,20.29-18.97c8.66-4.68,18.48-7.01,29.45-7.01s20.78,2.34,29.45,7.01c8.66,4.67,15.42,11,20.29,18.97,4.86,7.98,7.29,16.76,7.29,26.36v2.81h-70.11c0,4.48.56,8.2,1.68,11.12,1.12,2.93,2.65,5.08,4.58,6.45,1.93,1.37,4.21,2.06,6.83,2.06,3.11,0,5.7-.81,7.76-2.43,2.06-1.62,3.52-3.61,4.39-5.98h43.94c-3.37,10.72-9.75,19.79-19.16,27.2-9.41,7.42-21.72,11.12-36.93,11.12Zm12.15-61.7c-.25-2.37-.84-4.52-1.77-6.45-.94-1.93-2.28-3.52-4.02-4.77-1.75-1.24-3.87-1.87-6.36-1.87s-4.61.62-6.35,1.87c-1.75,1.25-3.09,2.84-4.02,4.77-.94,1.93-1.53,4.08-1.78,6.45h24.31Z"/>
        <path class="cls-1" d="m1046.35,190.71l24.31-52.35-22.44-46.74h44.87l11.22,29.91h3.74l11.22-29.91h44.87l-22.44,46.74,24.3,52.35h-45.8l-11.22-30.85h-5.61l-11.22,30.85h-45.8Z"/>
      </g>
      <g>
        <g>
          <path class="cls-1" d="m173.05,90.68l15.8,27.37c27.4,4.52,48.67,11.97,59.09,20.96,4.57-3.94,7.06-8.18,7.06-12.59,0-16.32-34.03-30.24-81.95-35.75Z"/>
          <path class="cls-1" d="m81.95,90.68C34.03,96.18,0,110.11,0,126.42c0,4.41,2.48,8.65,7.06,12.59,10.42-8.98,31.69-16.44,59.09-20.96l15.8-27.37Z"/>
        </g>
        <g>
          <path class="cls-1" d="m182.34,146.59l-13.01,22.54c6.58,14.25,10.07,27.06,9.78,36.69,4.65-.08,8.46-1.6,11.15-4.7,8-9.19,4.28-30.13-7.92-54.54Z"/>
          <path class="cls-1" d="m94.33,69.23h26.37c-24.41-20.14-46.48-27.89-55.65-17.36-2.69,3.09-4.06,7.52-4.22,12.96,7.88-.15,18.19,3.81,29.62,11.13l3.88-6.72Z"/>
        </g>
        <g>
          <path class="cls-1" d="m181.99,106.16c28.85-50.46,42.59-92.85,31.59-103.39-2.96-2.84-7.48-3.14-13.21-1.22-1.11,17.83-12.67,47.66-31.56,81.8l13.18,22.82Z"/>
          <path class="cls-1" d="m98.85,184.12c-24.23,28.06-46.35,47-60.78,51.83-.44,6.98.74,12.12,3.7,14.96,11.78,11.28,48.21-17.5,87.38-66.79h-30.3Z"/>
        </g>
        <path class="cls-1" d="m255,126.93c0,21.13-57.09,38.26-127.5,38.26S0,148.06,0,126.93c0-4.41,2.48-8.65,7.06-12.59,17.34,14.95,64.72,25.68,120.44,25.68s103.1-10.72,120.44-25.68c4.57,3.94,7.06,8.18,7.06,12.59Z"/>
        <path class="cls-1" d="m189.95,201.49c-12.91,14.82-51.4-6.58-85.97-47.8-34.57-41.22-52.14-86.65-39.24-101.47,2.69-3.09,6.5-4.61,11.15-4.7-.62,20.64,16.1,55.89,43.46,88.51,27.36,32.62,57.17,52.83,74.82,52.49-.16,5.44-1.53,9.87-4.22,12.96Z"/>
        <path class="cls-1" d="m41.43,250.59c-14.19-13.59,12.77-80.15,60.21-148.67C149.08,33.39,199.04-11.15,213.24,2.44c2.96,2.84,4.13,7.98,3.7,14.96-21.73,7.26-60.85,46.47-98.39,100.7-37.54,54.23-62.26,107.23-63.91,133.71-5.73,1.92-10.25,1.61-13.21-1.22Z"/>
      </g>
    </g>
  </g>
</svg>